<svg xmlns="http://www.w3.org/2000/svg" viewBox="0 0 512 512" width="512" height="512">
  <defs>
    <linearGradient id="bg" x1="0" y1="0" x2="1" y2="1">
      <stop offset="0%" stop-color="#1e3a8a"/>
      <stop offset="100%" stop-color="#4f46e5"/>
    </linearGradient>
    <linearGradient id="cap" x1="0" y1="0" x2="0" y2="1">
      <stop offset="0%" stop-color="#ffffff"/>
      <stop offset="100%" stop-color="#e0e7ff"/>
    </linearGradient>
  </defs>
  <rect width="512" height="512" rx="112" fill="url(#bg)"/>
  <!-- Graduation cap -->
  <g transform="translate(256,260) scale(2.2)">
    <path d="M -80 -20 L 0 -50 L 80 -20 L 0 10 Z" fill="url(#cap)"/>
    <path d="M -60 -8 L -60 40 Q 0 60 60 40 L 60 -8 L 0 20 Z" fill="#c7d2fe"/>
    <rect x="78" y="-22" width="4" height="50" rx="2" fill="#fbbf24"/>
    <circle cx="80" cy="30" r="6" fill="#fbbf24"/>
  </g>
  <!-- Score chart accent -->
  <g transform="translate(120,380)" opacity="0.85">
    <rect x="0" y="-20" width="18" height="20" rx="3" fill="#60a5fa"/>
    <rect x="28" y="-36" width="18" height="36" rx="3" fill="#34d399"/>
    <rect x="56" y="-50" width="18" height="50" rx="3" fill="#fbbf24"/>
  </g>
</svg>
